PathFileType	4	(X/Y/Z)	C:/Users/opensim2020/Desktop/walking_exp_matlab/subject03_walking04_static.trc	
DataRate	CameraRate	NumFrames	NumMarkers	Units	OrigDataRate	OrigDataStartFrame	OrigNumFrames	
100.00	100.00	4	51	mm	100.00	232	196	
Frame#	Time	LFHD			RFHD			LBHD			RBHD			C7			T10			CLAV			STRN			RBAK			LSHO			LUPA			LELB			LFRM			LWRA			LWRB			LFIN			RSHO			RUPA			RELB			RFRM			RWRA			RWRB			RFIN			LASI			RASI			LPSI			RPSI			LTHI			LKNE			LTIB			LANK			LHEE			LTOE			RTHI			RKNE			RTIB			RANK			RHEE			RTOE			*39			*40			*41			*42			*43			*44			*45			*46			*47			*48			*49			*50			
		X1	Y1	Z1	X2	Y2	Z2	X3	Y3	Z3	X4	Y4	Z4	X5	Y5	Z5	X6	Y6	Z6	X7	Y7	Z7	X8	Y8	Z8	X9	Y9	Z9	X10	Y10	Z10	X11	Y11	Z11	X12	Y12	Z12	X13	Y13	Z13	X14	Y14	Z14	X15	Y15	Z15	X16	Y16	Z16	X17	Y17	Z17	X18	Y18	Z18	X19	Y19	Z19	X20	Y20	Z20	X21	Y21	Z21	X22	Y22	Z22	X23	Y23	Z23	X24	Y24	Z24	X25	Y25	Z25	X26	Y26	Z26	X27	Y27	Z27	X28	Y28	Z28	X29	Y29	Z29	X30	Y30	Z30	X31	Y31	Z31	X32	Y32	Z32	X33	Y33	Z33	X34	Y34	Z34	X35	Y35	Z35	X36	Y36	Z36	X37	Y37	Z37	X38	Y38	Z38	X39	Y39	Z39	X40	Y40	Z40	X41	Y41	Z41	X42	Y42	Z42	X43	Y43	Z43	X44	Y44	Z44	X45	Y45	Z45	X46	Y46	Z46	X47	Y47	Z47	X48	Y48	Z48	X49	Y49	Z49	X50	Y50	Z50	X51	Y51	Z51	

50	0.490	354.53949	-665.49023	1632.84399	385.97559	-536.03156	1642.67346	481.91483	-688.76544	1592.05957	508.35248	-560.83588	1602.03125	524.15839	-623.29871	1427.63281	544.15839	-615.34723	1115.93372	395.44046	-609.29767	1362.74194	342.36880	-608.45618	1198.32227	575.05640	-531.87793	1249.57422	446.38867	-768.14240	1399.73584	462.96875	-853.32397	1210.68518	460.61203	-882.08173	1090.98035	431.53720	-903.37341	965.43665	400.28934	-894.38458	847.14825	436.58130	-936.12567	855.04742	414.11304	-940.40546	772.94080	474.38580	-459.51395	1391.28833	482.11856	-363.05927	1181.47449	467.03674	-328.74771	1074.28052	446.16183	-300.04431	941.28998	403.72791	-310.60092	844.76447	445.63632	-275.32889	843.31726	418.08701	-269.59811	773.03052	389.10229	-719.19305	946.94214	400.72342	-485.45911	947.56464	552.59888	-679.55560	979.54535	556.98694	-530.36078	987.36597	456.88806	-772.07056	647.73285	462.66827	-735.36438	470.05176	518.47174	-754.31323	285.49652	539.37622	-729.66632	73.82201	580.76947	-696.98499	36.79768	387.03638	-709.18726	34.49802	473.11694	-439.52008	653.95667	467.07617	-473.66937	474.15027	519.65552	-461.92255	292.73672	547.13690	-501.03571	76.04010	587.53192	-552.74670	41.75881	404.94901	-500.44125	36.46984	444.58258	-638.40051	1698.89453																																	 
51	0.500	354.42325	-665.52771	1632.85535	385.82446	-536.02545	1642.70984	481.81027	-688.75488	1592.06641	508.19501	-560.82581	1602.05444	523.97241	-623.32635	1427.65295	544.06946	-615.35248	1115.95984	395.28799	-609.24646	1362.71130	342.28363	-608.45477	1198.26721	574.95789	-531.90204	1249.58325	446.17953	-768.12720	1399.70581	462.78506	-853.31293	1210.65466	460.40524	-882.03784	1090.94470	431.35269	-903.32153	965.40967	400.16501	-894.35461	847.08124	436.44217	-936.10535	855.00653	414.00220	-940.39777	772.90265	474.24469	-459.51816	1391.23279	482.02069	-363.03131	1181.45923	466.95172	-328.72791	1074.22632	445.98755	-300.11700	941.07813	403.62332	-310.53537	844.69287	445.59174	-275.25806	843.31097	418.03131	-269.53375	773.02777	389.01514	-719.23096	946.94519	400.61133	-485.51059	947.54468	552.55927	-679.59937	979.52765	556.85736	-530.40747	987.35950	456.83545	-772.11096	647.71802	462.67075	-735.38763	470.05344	518.46649	-754.30841	285.49286	539.46796	-730.04810	73.97124	580.74884	-696.95123	36.76049	387.00659	-709.20465	34.49280	473.04477	-439.57422	653.95410	467.06415	-473.68152	474.16333	519.64148	-461.94397	292.76340	547.06830	-500.99951	76.06509	587.40973	-552.50763	41.69411	404.95877	-500.43143	36.45667	444.46600	-638.32532	1698.87671																																	 
52	0.510	354.30133	-665.56354	1632.84937	385.62576	-536.03687	1642.72632	481.68442	-688.76251	1592.03467	508.07959	-560.83746	1602.02393	523.82281	-623.31122	1427.67114	543.96680	-615.33099	1115.91650	395.14728	-609.23700	1362.67798	342.17596	-608.44281	1198.24170	574.84448	-531.88342	1249.57263	446.06949	-768.21661	1399.70569	462.62149	-853.27582	1210.62122	460.25681	-882.03699	1090.90881	431.17938	-903.27051	965.35522	400.04053	-894.28033	847.04144	436.30023	-936.08765	854.98364	413.87271	-940.34766	772.87286	474.08914	-459.48465	1391.18066	481.92447	-363.03311	1181.44543	466.85202	-328.71393	1074.21509	445.96677	-300.02225	941.18909	403.54395	-310.51288	844.67590	445.48047	-275.21204	843.28314	417.96030	-269.51883	773.00330	388.94806	-719.26953	946.94238	400.51898	-485.52344	947.53253	552.47168	-679.60950	979.54407	556.74792	-530.42676	987.35529	456.79587	-772.08179	647.67847	462.69391	-735.39117	470.04950	518.48083	-754.27716	285.48233	539.39978	-729.74152	73.82442	580.75092	-696.94299	36.77520	387.03897	-709.19208	34.47969	472.98636	-439.59366	653.94025	466.97726	-473.18661	474.39554	519.64233	-461.91953	292.76462	547.14124	-501.01416	75.99847	587.40942	-552.47375	41.67372	404.94839	-500.42676	36.45612	444.32037	-638.40515	1698.90320																																	 
53	0.520	354.18320	-665.60010	1632.86060	385.46951	-536.09033	1642.73889	481.57037	-688.75311	1592.02527	507.92166	-560.81104	1602.02368	523.65631	-623.29370	1427.67932	543.83466	-615.36884	1115.99548	395.03879	-609.23987	1362.64478	342.09384	-608.42242	1198.21436	574.70764	-531.91016	1249.58728	445.81396	-768.12006	1399.64197	462.43890	-853.23340	1210.59509	460.07138	-882.02020	1090.89673	430.98566	-903.25122	965.33270	399.88577	-894.22693	847.00244	436.12491	-936.09515	854.98395	413.65140	-940.13055	772.82074	473.98422	-459.43106	1391.19482	481.79846	-363.00500	1181.41614	466.73846	-328.69778	1074.19897	445.85376	-299.98450	941.16058	403.44360	-310.46765	844.63422	445.43692	-275.18173	843.26007	417.87149	-269.42953	772.96631	388.86423	-719.30914	946.92493	400.42609	-485.55203	947.52448	552.44879	-679.71851	979.58966	556.62378	-530.43958	987.36456	456.75015	-772.11865	647.70551	462.68588	-735.40155	470.03561	518.49463	-754.28693	285.48859	539.40363	-729.78900	73.84493	580.78516	-696.95898	36.77706	387.03964	-709.19751	34.47699	472.89719	-439.62943	653.94135	466.94943	-473.18030	474.39874	519.61597	-461.97626	292.73999	547.16107	-501.03433	76.02116	587.53339	-552.74030	41.76856	404.95816	-500.42609	36.46922	444.21912	-638.44043	1698.90527																																	 
